<svg id="Layer_1" data-name="Layer 1" xmlns="http://www.w3.org/2000/svg" width="192" height="192" viewBox="0 0 192 192"><defs><style>.cls-1{fill:#d1e7ed;}.cls-2{fill:#4d4d4d;}</style></defs><circle class="cls-1" cx="96" cy="95" r="55.97"/><path class="cls-2" d="M91.42,147.11,98,100.65l-40.25,11,30.58,34.56-.75.67L55.9,111.12,99.16,99.28,92.73,145l40.39-27.76,7.47-54-37.47-2.66L103,60.5,71.48,39.3,85.15,78.69,56.48,110.45l-.33-.64c-7-13.49-17.62-33.87-18.35-34.76l.34-.29v-.57c.39,0,.71,0,18.55,34.52L84,78.46,69.56,36.8l33.89,22.8,38.27,2.71-7.67,55.49Z"/><path class="cls-2" d="M139.9,75.11l8.16-2.39a4.12,4.12,0,0,0,2.85-3l2-8.26a4.13,4.13,0,0,0-1.17-4l-6.15-5.86a4.14,4.14,0,0,0-4-1l-8.16,2.4a4.11,4.11,0,0,0-2.85,3l-2,8.26a4.12,4.12,0,0,0,1.17,4l6.15,5.87A4.11,4.11,0,0,0,139.9,75.11Z"/><path class="cls-2" d="M104.09,66.39l2.23-.65a4.13,4.13,0,0,0,2.85-3l.55-2.25a4.13,4.13,0,0,0-1.17-4l-1.67-1.6a4.12,4.12,0,0,0-4-1l-2.23.65a4.16,4.16,0,0,0-2.85,3l-.54,2.25a4.13,4.13,0,0,0,1.16,4l1.68,1.6A4.11,4.11,0,0,0,104.09,66.39Z"/><path class="cls-2" d="M71.14,41.41h0a4.08,4.08,0,0,0,2.82-3h0a4.08,4.08,0,0,0-1.15-3.93h0a4.1,4.1,0,0,0-4-1h0a4.09,4.09,0,0,0-2.83,3h0a4.11,4.11,0,0,0,1.16,3.93h0A4.07,4.07,0,0,0,71.14,41.41Z"/><path class="cls-2" d="M83.21,89.7l7.62-2.24a4.12,4.12,0,0,0,2.85-3l1.88-7.72a4.13,4.13,0,0,0-1.17-4L88.64,67.3a4.13,4.13,0,0,0-4-1L77,68.56a4.15,4.15,0,0,0-2.86,3l-1.87,7.72a4.13,4.13,0,0,0,1.16,4l5.75,5.48A4.15,4.15,0,0,0,83.21,89.7Z"/><path class="cls-2" d="M39.58,80.1l2.23-.66a4.13,4.13,0,0,0,2.85-3l.55-2.25a4.14,4.14,0,0,0-1.17-4l-1.68-1.61a4.13,4.13,0,0,0-4-1l-2.23.65a4.16,4.16,0,0,0-2.85,3l-.55,2.26a4.15,4.15,0,0,0,1.17,4l1.68,1.6A4.13,4.13,0,0,0,39.58,80.1Z"/><path class="cls-2" d="M55.91,130.2l12.85-3.77a4.11,4.11,0,0,0,2.85-3l3.16-13a4.12,4.12,0,0,0-1.16-4l-9.69-9.25a4.15,4.15,0,0,0-4-1L47.05,100a4.12,4.12,0,0,0-2.85,3L41,116a4.12,4.12,0,0,0,1.16,4l9.69,9.25A4.12,4.12,0,0,0,55.91,130.2Z"/><path class="cls-2" d="M99.39,108.07l5.33-1.56a4.16,4.16,0,0,0,2.85-3l1.31-5.4a4.14,4.14,0,0,0-1.16-4l-4-3.83a4.15,4.15,0,0,0-4-1l-5.32,1.57a4.12,4.12,0,0,0-2.86,3L90.19,99.3a4.16,4.16,0,0,0,1.17,4l4,3.83A4.1,4.1,0,0,0,99.39,108.07Z"/><path class="cls-2" d="M89.65,167.65l17-5a4.16,4.16,0,0,0,2.85-3l4.17-17.19a4.13,4.13,0,0,0-1.16-4l-12.8-12.2a4.14,4.14,0,0,0-4-1l-17,5a4.16,4.16,0,0,0-2.85,3L71.67,150.5a4.12,4.12,0,0,0,1.16,4l12.8,12.21A4.15,4.15,0,0,0,89.65,167.65Z"/><path class="cls-2" d="M134.44,125.66l4.43-1.3a4.15,4.15,0,0,0,2.86-3l1.08-4.49a4.13,4.13,0,0,0-1.16-4l-3.34-3.18a4.15,4.15,0,0,0-4-1l-4.43,1.3a4.16,4.16,0,0,0-2.85,3l-1.09,4.49a4.13,4.13,0,0,0,1.16,4l3.35,3.19A4.13,4.13,0,0,0,134.44,125.66Z"/></svg>